<svg width="128" height="30" viewBox="0 0 128 30" fill="none" xmlns="http://www.w3.org/2000/svg">
<g clip-path="url(#clip0_2562_44518)">
<path d="M0.0986328 30H128V0.10409H0.0986328V30Z" fill="#264775"/>
<path d="M124.898 26.9468H3.29883V3.26217H124.898V26.9468Z" fill="white"/>
<path d="M20.1194 16.6703L17.5538 11.1088L14.9471 16.6703H20.1194ZM21.1131 18.8091H13.9227L12.8579 21.0052C12.7111 21.3103 12.6377 21.5504 12.6377 21.7258C12.6377 22.0614 12.896 22.2939 13.4125 22.4235V22.7896H8.17969V22.4235C8.48868 22.3626 8.72439 22.2558 8.88669 22.1032C9.04886 21.9507 9.23439 21.6534 9.44301 21.2111L15.2612 9.21273C15.4466 8.8316 15.5394 8.52654 15.5394 8.29769C15.5394 7.94706 15.3151 7.69542 14.8672 7.54289V7.17683H20.4768V7.54289C20.0207 7.67264 19.7929 7.89738 19.7929 8.21763C19.7929 8.43901 19.8663 8.69065 20.0131 8.97254L26.0399 21.0052C26.295 21.5162 26.519 21.865 26.7122 22.0518C26.9052 22.2387 27.1642 22.3626 27.4888 22.4235V22.7896H21.6648V22.4235C22.176 22.3397 22.432 22.1032 22.432 21.7144C22.432 21.5543 22.3547 21.3179 22.2002 21.0052L21.1131 18.8091Z" fill="#264775"/>
<path d="M35.4278 9.75037V21.5885C35.4278 21.8251 35.4817 22.0043 35.5901 22.1261C35.6982 22.2482 35.8915 22.3474 36.1697 22.4235V22.7896H31.2322V22.4235C31.5104 22.3474 31.7034 22.2482 31.8118 22.1261C31.9199 22.0043 31.9739 21.8251 31.9739 21.5885V9.75037H27.0599C26.828 9.75037 26.6501 9.80267 26.5267 9.90726C26.4029 10.0118 26.3026 10.2036 26.2253 10.4824H25.8545V6.44482H26.2253C26.3103 6.72273 26.4126 6.9141 26.5325 7.01919C26.6522 7.12428 26.828 7.17683 27.0599 7.17683H40.3304C40.5698 7.17683 40.7515 7.12428 40.8752 7.01919C40.9987 6.9141 41.0992 6.72273 41.1765 6.44482H41.5474V10.4824H41.1765C41.0992 10.2036 40.9987 10.0118 40.8752 9.90726C40.7515 9.80267 40.5698 9.75037 40.3304 9.75037H35.4278Z" fill="#264775"/>
<path d="M56.441 15.9726H47.3196V21.6C47.3196 21.8287 47.3756 22.006 47.4877 22.1319C47.5996 22.2578 47.7909 22.355 48.0614 22.4236V22.7896H43.124V22.4236C43.4022 22.3474 43.5953 22.2482 43.7036 22.1261C43.8117 22.0043 43.8659 21.8287 43.8659 21.6V8.36642C43.8659 8.13769 43.8117 7.96237 43.7036 7.84035C43.5953 7.71845 43.4022 7.61922 43.124 7.54289V7.17683H48.0614V7.54289C47.7833 7.6115 47.59 7.70874 47.4819 7.83462C47.3737 7.96038 47.3196 8.13769 47.3196 8.36642V13.3991H56.441V8.36642C56.441 8.13769 56.3869 7.96038 56.2787 7.83462C56.1704 7.70874 55.9774 7.6115 55.6991 7.54289V7.17683H60.6366V7.54289C60.3584 7.61922 60.1653 7.71845 60.057 7.84035C59.9488 7.96237 59.8949 8.13769 59.8949 8.36642V21.6C59.8949 21.8287 59.9488 22.0043 60.057 22.1261C60.1653 22.2482 60.3584 22.3474 60.6366 22.4236V22.7896H55.6991V22.4236C55.9696 22.355 56.1609 22.2578 56.273 22.1319C56.3849 22.006 56.441 21.8287 56.441 21.6V15.9726Z" fill="#264775"/>
<path d="M67.6828 15.9383V20.2159H77.8588C78.0907 20.2159 78.2683 20.1628 78.3921 20.0558C78.5155 19.9492 78.616 19.7586 78.6934 19.484H79.0644V23.5215H78.6934C78.616 23.2471 78.5155 23.0563 78.3921 22.9497C78.2683 22.8428 78.0907 22.7895 77.8588 22.7895H63.4873V22.4235C63.7655 22.3475 63.9585 22.2482 64.0668 22.1261C64.175 22.0043 64.229 21.825 64.229 21.5886V8.37779C64.229 8.14159 64.175 7.96229 64.0668 7.84027C63.9585 7.71837 63.7655 7.61926 63.4873 7.54293V7.17687H77.5807C77.8125 7.17687 77.9902 7.12258 78.1139 7.01376C78.2374 6.90481 78.3379 6.7153 78.4153 6.44486H78.7862V10.4824H78.4153C78.3379 10.2112 78.2374 10.0215 78.1139 9.91303C77.9902 9.8047 77.8125 9.75041 77.5807 9.75041H67.6828V13.4563H74.1038C74.3356 13.4563 74.5132 13.403 74.6369 13.2962C74.7604 13.1894 74.861 12.9987 74.9383 12.7243H75.309V16.6703H74.9383C74.861 16.4034 74.7604 16.2147 74.6369 16.1042C74.5132 15.9936 74.3356 15.9383 74.1038 15.9383H67.6828Z" fill="#264775"/>
<path d="M85.4273 12.0952V21.5886C85.4273 21.8251 85.4812 22.0043 85.5896 22.1261C85.6977 22.2482 85.8909 22.3474 86.169 22.4236V22.7896H81.5215V22.4236C81.7996 22.3474 81.9926 22.2482 82.1009 22.1261C82.209 22.0043 82.2632 21.8251 82.2632 21.5886V8.36642C82.2632 8.13769 82.209 7.96238 82.1009 7.84036C81.9926 7.71846 81.7996 7.61922 81.5215 7.5429V7.17695H86.8992V7.5429C86.5669 7.62694 86.4008 7.80226 86.4008 8.06909C86.4008 8.25212 86.509 8.4542 86.7255 8.67533L95.4527 17.631V8.36642C95.4527 8.13769 95.3985 7.96238 95.2904 7.84036C95.182 7.71846 94.989 7.61922 94.7109 7.5429V7.17695H99.3584V7.5429C99.0804 7.61922 98.8871 7.71846 98.779 7.84036C98.6706 7.96238 98.6167 8.13769 98.6167 8.36642V21.5886C98.6167 21.8251 98.6706 22.0043 98.779 22.1261C98.8871 22.2482 99.0804 22.3474 99.3584 22.4236V22.7896H94.3748V22.4236C94.6992 22.355 94.8616 22.191 94.8616 21.9317C94.8616 21.7793 94.6722 21.5124 94.2938 21.131L85.4273 12.0952Z" fill="#264775"/>
<path d="M113.06 16.6703L110.494 11.1088L107.887 16.6703H113.06ZM114.054 18.8091H106.863L105.798 21.0052C105.651 21.3103 105.578 21.5504 105.578 21.7258C105.578 22.0614 105.836 22.2939 106.353 22.4235V22.7896H101.12V22.4235C101.429 22.3626 101.665 22.2558 101.827 22.1032C101.989 21.9507 102.175 21.6534 102.383 21.2111L108.202 9.21273C108.387 8.8316 108.48 8.52654 108.48 8.29769C108.48 7.94706 108.256 7.69542 107.808 7.54289V7.17683H113.417V7.54289C112.961 7.67264 112.733 7.89738 112.733 8.21763C112.733 8.43901 112.807 8.69065 112.954 8.97254L118.98 21.0052C119.235 21.5162 119.459 21.865 119.653 22.0518C119.846 22.2387 120.105 22.3626 120.429 22.4235V22.7896H114.605V22.4235C115.116 22.3397 115.372 22.1032 115.372 21.7144C115.372 21.5543 115.295 21.3179 115.141 21.0052L114.054 18.8091Z" fill="#264775"/>
</g>
<defs>
<clipPath id="clip0_2562_44518">
<rect width="128" height="30" fill="white"/>
</clipPath>
</defs>
</svg>
