<svg width="48" height="48" viewBox="0 0 48 48" fill="none" xmlns="http://www.w3.org/2000/svg">
<path d="M42.4224 39.3083C44.884 36.3465 46.5961 32.8354 47.4138 29.0719C48.2316 25.3085 48.1308 21.4035 47.1202 17.6873C46.1095 13.971 44.2187 10.5529 41.6076 7.72192C38.9965 4.89099 35.742 2.73059 32.1193 1.42346C28.4967 0.116338 24.6126 -0.299049 20.7954 0.212439C16.9783 0.723928 13.3406 2.14724 10.1899 4.36199C7.03917 6.57673 4.46824 9.51773 2.69456 12.9362C0.920881 16.3547 -0.00336409 20.1501 9.2007e-06 24.0013C0.00130365 29.5999 1.97422 35.0192 5.57256 39.3083L5.53828 39.3374C5.65827 39.4814 5.79539 39.6048 5.91881 39.7471C6.07308 39.9236 6.23935 40.0899 6.39876 40.2613C6.87871 40.7824 7.37237 41.2829 7.89003 41.7526C8.04773 41.8966 8.21056 42.0303 8.36998 42.1674C8.91849 42.6405 9.48243 43.0896 10.0669 43.5078C10.1424 43.5592 10.2109 43.6261 10.2863 43.6792V43.6587C14.301 46.4838 19.0902 48 23.9992 48C28.9082 48 33.6974 46.4838 37.712 43.6587V43.6792C37.7874 43.6261 37.8543 43.5592 37.9314 43.5078C38.5142 43.0879 39.0799 42.6405 39.6284 42.1674C39.7878 42.0303 39.9506 41.8948 40.1083 41.7526C40.626 41.2812 41.1196 40.7824 41.5996 40.2613C41.759 40.0899 41.9236 39.9236 42.0795 39.7471C42.2012 39.6048 42.3401 39.4814 42.4601 39.3357L42.4224 39.3083ZM23.9975 10.2885C25.523 10.2885 27.0144 10.7409 28.2828 11.5884C29.5513 12.436 30.54 13.6407 31.1238 15.0501C31.7076 16.4596 31.8603 18.0105 31.5627 19.5068C31.2651 21.003 30.5305 22.3775 29.4517 23.4562C28.373 24.5349 26.9985 25.2696 25.5023 25.5672C24.006 25.8648 22.4551 25.7121 21.0456 25.1283C19.6362 24.5445 18.4315 23.5558 17.5839 22.2873C16.7364 21.0189 16.284 19.5275 16.284 18.002C16.284 15.9562 17.0967 13.9943 18.5432 12.5477C19.9898 11.1012 21.9517 10.2885 23.9975 10.2885ZM10.2966 39.3083C10.3264 37.0576 11.241 34.9091 12.8427 33.3276C14.4444 31.7462 16.6043 30.8589 18.8551 30.8577H29.1398C31.3906 30.8589 33.5506 31.7462 35.1522 33.3276C36.7539 34.9091 37.6686 37.0576 37.6983 39.3083C33.939 42.6959 29.0579 44.5707 23.9975 44.5707C18.937 44.5707 14.0559 42.6959 10.2966 39.3083Z" fill="#E0E0E0"/>
</svg>
