<svg width="25" height="24" viewBox="0 0 25 24" fill="none" xmlns="http://www.w3.org/2000/svg">
<path fill-rule="evenodd" clip-rule="evenodd" d="M7.33398 6V5C7.33398 3.89543 8.22941 3 9.33398 3H15.334C16.4386 3 17.334 3.89543 17.334 5V6H20.334C20.8863 6 21.334 6.44772 21.334 7C21.334 7.55228 20.8863 8 20.334 8H19.334V19C19.334 20.6569 17.9908 22 16.334 22H8.33398C6.67713 22 5.33398 20.6569 5.33398 19V8H4.33398C3.7817 8 3.33398 7.55228 3.33398 7C3.33398 6.44772 3.7817 6 4.33398 6H7.33398ZM9.33398 5H15.334V6H9.33398V5ZM7.33398 8H17.334V19C17.334 19.5523 16.8863 20 16.334 20H8.33398C7.7817 20 7.33398 19.5523 7.33398 19V8Z" fill="#777777"/>
</svg>
