<svg width="16" height="16" viewBox="0 0 16 16" fill="none" xmlns="http://www.w3.org/2000/svg">
<path d="M7.99967 4.66671C7.63301 4.66671 7.33301 4.96671 7.33301 5.33337V7.33337H5.33301C4.96634 7.33337 4.66634 7.63337 4.66634 8.00004C4.66634 8.36671 4.96634 8.66671 5.33301 8.66671H7.33301V10.6667C7.33301 11.0334 7.63301 11.3334 7.99967 11.3334C8.36634 11.3334 8.66634 11.0334 8.66634 10.6667V8.66671H10.6663C11.033 8.66671 11.333 8.36671 11.333 8.00004C11.333 7.63337 11.033 7.33337 10.6663 7.33337H8.66634V5.33337C8.66634 4.96671 8.36634 4.66671 7.99967 4.66671ZM7.99967 1.33337C4.31967 1.33337 1.33301 4.32004 1.33301 8.00004C1.33301 11.68 4.31967 14.6667 7.99967 14.6667C11.6797 14.6667 14.6663 11.68 14.6663 8.00004C14.6663 4.32004 11.6797 1.33337 7.99967 1.33337ZM7.99967 13.3334C5.05967 13.3334 2.66634 10.94 2.66634 8.00004C2.66634 5.06004 5.05967 2.66671 7.99967 2.66671C10.9397 2.66671 13.333 5.06004 13.333 8.00004C13.333 10.94 10.9397 13.3334 7.99967 13.3334Z" fill="#3780E6"/>
</svg>
