<svg width="24" height="24" viewBox="0 0 24 24" fill="none" xmlns="http://www.w3.org/2000/svg">
<rect width="24" height="24" rx="12" fill="white"/>
<path d="M12.1233 4.00056C11.0706 4.01779 10.0738 4.42351 9.31654 5.14288C8.55932 5.86226 8.13229 6.80929 8.11418 7.80943L8.00006 14.1041C7.99658 14.2956 8.15717 14.4482 8.35871 14.4449C8.56025 14.4416 8.72647 14.2837 8.72997 14.0922L8.8441 7.79751C8.85887 6.98259 9.2068 6.21094 9.82378 5.62479C10.4408 5.0386 11.253 4.70802 12.1107 4.694C13.8815 4.66504 15.2974 6.01011 15.2668 7.69238C15.2669 7.69221 15.2668 7.69253 15.2668 7.69238L15.0976 17.0246C15.0969 17.0608 15.1022 17.0957 15.1125 17.1283C15.101 17.1613 15.0945 17.1964 15.0938 17.2326C15.0734 18.3566 14.0943 19.2868 12.9113 19.3061C12.3382 19.3155 11.8032 19.1123 11.4049 18.734C11.0066 18.3556 10.7927 17.8473 10.8026 17.3029L10.9563 8.82625C10.9653 8.33309 11.3948 7.92501 11.9139 7.91654C12.433 7.90802 12.848 8.30229 12.839 8.79544L12.6853 17.272C12.6818 17.4635 12.8424 17.6161 13.044 17.6128C13.1448 17.6111 13.2367 17.5708 13.3039 17.507C13.3711 17.4432 13.4135 17.3558 13.4152 17.2601L13.5689 8.78347C13.5848 7.90802 12.848 7.20804 11.9265 7.22308C11.005 7.23819 10.2423 7.96268 10.2264 8.83815L10.0727 17.3148C10.0454 18.8211 11.3131 20.0255 12.8987 19.9996C13.6915 19.9866 14.4159 19.6685 14.9455 19.1653C15.4752 18.6621 15.81 17.9738 15.8237 17.2207C15.8244 17.1845 15.8191 17.1496 15.8089 17.1169C15.8203 17.0839 15.8268 17.0489 15.8275 17.0127L16 7.50306C16.0004 7.47661 15.9975 7.45102 15.992 7.42635C15.8893 5.48208 14.2066 3.96647 12.1233 4.00056Z" fill="#3780E6"/>
</svg>
