<svg width="8" height="16" viewBox="0 0 8 16" fill="none" xmlns="http://www.w3.org/2000/svg">
<path d="M4.12328 0.00056421C3.07057 0.0177947 2.07375 0.423507 1.31654 1.14288C0.559321 1.86226 0.132294 2.80929 0.114182 3.80943L5.52646e-05 10.1041C-0.00341702 10.2956 0.157169 10.4482 0.358712 10.4449C0.560254 10.4416 0.726471 10.2837 0.72997 10.0922L0.844095 3.79751C0.858874 2.98259 1.2068 2.21094 1.82378 1.62479C2.4408 1.0386 3.25298 0.708019 4.11074 0.694004C5.88155 0.665044 7.29736 2.01011 7.26682 3.69238C7.26685 3.69221 7.26682 3.69253 7.26682 3.69238L7.09759 13.0246C7.09693 13.0608 7.10218 13.0957 7.11247 13.1283C7.10101 13.1613 7.09447 13.1964 7.09381 13.2326C7.07343 14.3566 6.09435 15.2868 4.91126 15.3061C4.33817 15.3155 3.80319 15.1123 3.40492 14.734C3.00662 14.3556 2.79274 13.8473 2.80261 13.3029L2.95628 4.82625C2.96528 4.33309 3.39481 3.92501 3.91389 3.91654C4.43297 3.90802 4.84798 4.30229 4.83901 4.79544L4.68532 13.272C4.68184 13.4635 4.84243 13.6161 5.044 13.6128C5.14477 13.6111 5.23672 13.5708 5.3039 13.507C5.37107 13.4432 5.41349 13.3558 5.41523 13.2601L5.56893 4.78347C5.58478 3.90802 4.84799 3.20804 3.92647 3.22308C3.00497 3.23819 2.24232 3.96268 2.22639 4.83815L2.0727 13.3148C2.04541 14.8211 3.31313 16.0255 4.89871 15.9996C5.69146 15.9866 6.41589 15.6685 6.94551 15.1653C7.47516 14.6621 7.81004 13.9738 7.82373 13.2207C7.82438 13.1845 7.81913 13.1496 7.80887 13.1169C7.82033 13.0839 7.82684 13.0489 7.8275 13.0127L7.99995 3.50306C8.00041 3.47661 7.99752 3.45102 7.99203 3.42635C7.88927 1.48208 6.20658 -0.0335344 4.12328 0.00056421Z" fill="#333333"/>
</svg>
