<svg width="24" height="24" viewBox="0 0 24 24" fill="none" xmlns="http://www.w3.org/2000/svg">
<path d="M11.1233 4.00056C10.0706 4.01779 9.07375 4.42351 8.31654 5.14288C7.55932 5.86226 7.13229 6.80929 7.11418 7.80943L7.00006 14.1041C6.99658 14.2956 7.15717 14.4482 7.35871 14.4449C7.56025 14.4416 7.72647 14.2837 7.72997 14.0922L7.8441 7.79751C7.85887 6.98259 8.2068 6.21094 8.82378 5.62479C9.4408 5.0386 10.253 4.70802 11.1107 4.694C12.8815 4.66504 14.2974 6.01011 14.2668 7.69238C14.2669 7.69221 14.2668 7.69253 14.2668 7.69238L14.0976 17.0246C14.0969 17.0608 14.1022 17.0957 14.1125 17.1283C14.101 17.1613 14.0945 17.1964 14.0938 17.2326C14.0734 18.3566 13.0943 19.2868 11.9113 19.3061C11.3382 19.3155 10.8032 19.1123 10.4049 18.734C10.0066 18.3556 9.79274 17.8473 9.80261 17.3029L9.95628 8.82625C9.96528 8.33309 10.3948 7.92501 10.9139 7.91654C11.433 7.90802 11.848 8.30229 11.839 8.79544L11.6853 17.272C11.6818 17.4635 11.8424 17.6161 12.044 17.6128C12.1448 17.6111 12.2367 17.5708 12.3039 17.507C12.3711 17.4432 12.4135 17.3558 12.4152 17.2601L12.5689 8.78347C12.5848 7.90802 11.848 7.20804 10.9265 7.22308C10.005 7.23819 9.24232 7.96268 9.22639 8.83815L9.0727 17.3148C9.04541 18.8211 10.3131 20.0255 11.8987 19.9996C12.6915 19.9866 13.4159 19.6685 13.9455 19.1653C14.4752 18.6621 14.81 17.9738 14.8237 17.2207C14.8244 17.1845 14.8191 17.1496 14.8089 17.1169C14.8203 17.0839 14.8268 17.0489 14.8275 17.0127L15 7.50306C15.0004 7.47661 14.9975 7.45102 14.992 7.42635C14.8893 5.48208 13.2066 3.96647 11.1233 4.00056Z" fill="#333333"/>
</svg>
