<svg width="48" height="48" viewBox="0 0 48 48" fill="none" xmlns="http://www.w3.org/2000/svg">
<path d="M22.2466 8.00113C20.1411 8.03559 18.1475 8.84701 16.6331 10.2858C15.1186 11.7245 14.2646 13.6186 14.2284 15.6189L14.0001 28.2083C13.9932 28.5912 14.3143 28.8963 14.7174 28.8897C15.1205 28.8831 15.4529 28.5673 15.4599 28.1843L15.6882 15.595C15.7177 13.9652 16.4136 12.4219 17.6476 11.2496C18.8816 10.0772 20.506 9.41604 22.2215 9.38801C25.7631 9.33009 28.5947 12.0202 28.5336 15.3848C28.5337 15.3844 28.5336 15.3851 28.5336 15.3848L28.1952 34.0492C28.1939 34.1217 28.2044 34.1913 28.2249 34.2567C28.202 34.3227 28.1889 34.3927 28.1876 34.4652C28.1469 36.7132 26.1887 38.5736 23.8225 38.6123C22.6763 38.6311 21.6064 38.2247 20.8098 37.4679C20.0132 36.7111 19.5855 35.6946 19.6052 34.6057L19.9126 17.6525C19.9306 16.6662 20.7896 15.85 21.8278 15.8331C22.8659 15.816 23.696 16.6046 23.678 17.5909L23.3706 34.5441C23.3637 34.927 23.6849 35.2321 24.088 35.2256C24.2895 35.2222 24.4734 35.1417 24.6078 35.014C24.7421 34.8864 24.827 34.7116 24.8305 34.5202L25.1379 17.5669C25.1696 15.816 23.696 14.4161 21.8529 14.4462C20.0099 14.4764 18.4846 15.9254 18.4528 17.6763L18.1454 34.6296C18.0908 37.6423 20.6263 40.051 23.7974 39.9992C25.3829 39.9732 26.8318 39.3369 27.891 38.3306C28.9503 37.3242 29.6201 35.9477 29.6475 34.4414C29.6488 34.3689 29.6383 34.2993 29.6177 34.2339C29.6407 34.1679 29.6537 34.0979 29.655 34.0254L29.9999 15.0061C30.0008 14.9532 29.995 14.902 29.9841 14.8527C29.7785 10.9642 26.4132 7.93293 22.2466 8.00113Z" fill="#CFCFCF"/>
<circle cx="30" cy="12" r="6" fill="#CFCFCF"/>
<path fill-rule="evenodd" clip-rule="evenodd" d="M29.9978 15.6001C29.7142 15.6001 29.4844 15.3698 29.4844 15.0858L29.4844 8.91438C29.4844 8.63035 29.7142 8.4001 29.9978 8.4001C30.2813 8.4001 30.5112 8.63035 30.5112 8.91438L30.5112 15.0858C30.5112 15.3698 30.2813 15.6001 29.9978 15.6001Z" fill="white"/>
<path fill-rule="evenodd" clip-rule="evenodd" d="M33.5996 12.0001C33.5996 11.7161 33.3694 11.4858 33.0853 11.4858L26.9139 11.4858C26.6299 11.4858 26.3996 11.7161 26.3996 12.0001C26.3996 12.2842 26.6299 12.5144 26.9139 12.5144L33.0853 12.5144C33.3694 12.5144 33.5996 12.2842 33.5996 12.0001Z" fill="white"/>
</svg>
