<svg width="20" height="21" viewBox="0 0 20 21" fill="none" xmlns="http://www.w3.org/2000/svg">
<path d="M2.5 0.00195313C1.83696 0.00195313 1.20107 0.265345 0.732233 0.734186C0.263392 1.20303 0 1.83891 0 2.50195L0 17.502C0 18.165 0.263392 18.8009 0.732233 19.2697C1.20107 19.7386 1.83696 20.002 2.5 20.002H17.5C18.163 20.002 18.7989 19.7386 19.2678 19.2697C19.7366 18.8009 20 18.165 20 17.502V2.50195C20 1.83891 19.7366 1.20303 19.2678 0.734186C18.7989 0.265345 18.163 0.00195313 17.5 0.00195312L2.5 0.00195313ZM10.625 5.62695V9.37695H14.375C14.5408 9.37695 14.6997 9.4428 14.8169 9.56001C14.9342 9.67722 15 9.83619 15 10.002C15 10.1677 14.9342 10.3267 14.8169 10.4439C14.6997 10.5611 14.5408 10.627 14.375 10.627H10.625V14.377C10.625 14.5427 10.5592 14.7017 10.4419 14.8189C10.3247 14.9361 10.1658 15.002 10 15.002C9.83424 15.002 9.67527 14.9361 9.55806 14.8189C9.44085 14.7017 9.375 14.5427 9.375 14.377V10.627H5.625C5.45924 10.627 5.30027 10.5611 5.18306 10.4439C5.06585 10.3267 5 10.1677 5 10.002C5 9.83619 5.06585 9.67722 5.18306 9.56001C5.30027 9.4428 5.45924 9.37695 5.625 9.37695H9.375V5.62695C9.375 5.46119 9.44085 5.30222 9.55806 5.18501C9.67527 5.0678 9.83424 5.00195 10 5.00195C10.1658 5.00195 10.3247 5.0678 10.4419 5.18501C10.5592 5.30222 10.625 5.46119 10.625 5.62695Z" fill="#3780E6"/>
</svg>
