<svg width="24" height="25" viewBox="0 0 24 25" fill="none" xmlns="http://www.w3.org/2000/svg">
<path d="M19.3238 9.96875C19.3238 9.96875 18.7808 16.7037 18.4658 19.5407C18.3158 20.8957 17.4788 21.6898 16.1078 21.7148C13.4988 21.7618 10.8868 21.7648 8.27881 21.7098C6.95981 21.6828 6.13681 20.8788 5.98981 19.5478C5.67281 16.6858 5.13281 9.96875 5.13281 9.96875" stroke="#333333" stroke-width="1.5" stroke-linecap="round" stroke-linejoin="round"/>
<path d="M20.708 6.74023H3.75" stroke="#333333" stroke-width="1.5" stroke-linecap="round" stroke-linejoin="round"/>
<path d="M17.4386 6.73998C16.6536 6.73998 15.9776 6.18498 15.8236 5.41598L15.5806 4.19998C15.4306 3.63898 14.9226 3.25098 14.3436 3.25098H10.1106C9.53163 3.25098 9.02363 3.63898 8.87363 4.19998L8.63063 5.41598C8.47663 6.18498 7.80063 6.73998 7.01562 6.73998" stroke="#333333" stroke-width="1.5" stroke-linecap="round" stroke-linejoin="round"/>
</svg>
