<svg width="24" height="24" viewBox="0 0 24 24" fill="none" xmlns="http://www.w3.org/2000/svg">
<path d="M17.6464 8.64645C17.8417 8.45118 18.1583 8.45118 18.3536 8.64645C18.5488 8.84171 18.5488 9.15829 18.3536 9.35355L17.6464 8.64645ZM12 15L12.3536 15.3536L12 15.7071L11.6464 15.3536L12 15ZM5.64645 9.35355C5.45118 9.15829 5.45118 8.84171 5.64645 8.64645C5.84171 8.45118 6.15829 8.45118 6.35355 8.64645L5.64645 9.35355ZM18.3536 9.35355L12.3536 15.3536L11.6464 14.6464L17.6464 8.64645L18.3536 9.35355ZM11.6464 15.3536L5.64645 9.35355L6.35355 8.64645L12.3536 14.6464L11.6464 15.3536Z" fill="#4C4C4C"/>
</svg>
