<svg width="16" height="16" viewBox="0 0 16 16" fill="none" xmlns="http://www.w3.org/2000/svg">
<path d="M10.4013 7.19341C11.048 6.74675 11.5013 6.01341 11.5013 5.33341C11.5013 3.82675 10.3346 2.66675 8.83464 2.66675H4.66797V12.0001H9.3613C10.7546 12.0001 11.8346 10.8667 11.8346 9.47341C11.8346 8.46008 11.2613 7.59341 10.4013 7.19341V7.19341ZM6.66797 4.33341H8.66797C9.2213 4.33341 9.66797 4.78008 9.66797 5.33341C9.66797 5.88675 9.2213 6.33341 8.66797 6.33341H6.66797V4.33341ZM9.0013 10.3334H6.66797V8.33341H9.0013C9.55464 8.33341 10.0013 8.78008 10.0013 9.33341C10.0013 9.88675 9.55464 10.3334 9.0013 10.3334Z" fill="#323232"/>
</svg>
