<svg width="40" height="40" viewBox="0 0 40 40" fill="none" xmlns="http://www.w3.org/2000/svg">
<path d="M9.48752 31.6667L20.5118 31.6667C22.0693 31.6653 23.3316 30.3603 23.333 28.7501L23.333 24.0834C23.333 23.7613 23.0804 23.5001 22.7688 23.5001C22.4572 23.5001 22.2045 23.7613 22.2045 24.0834L22.2045 28.7501C22.2035 29.7162 21.4463 30.499 20.5118 30.5001L9.48752 30.5001C8.55307 30.499 7.79584 29.7162 7.79481 28.7501L7.79481 11.2501C7.79584 10.284 8.55307 9.50115 9.48752 9.50008L20.5118 9.50008C21.4463 9.50115 22.2035 10.284 22.2045 11.2501L22.2045 15.9167C22.2045 16.2389 22.4572 16.5001 22.7688 16.5001C23.0804 16.5001 23.333 16.2389 23.333 15.9167L23.333 11.2501C23.3316 9.63986 22.0693 8.33491 20.5118 8.33342L9.48752 8.33341C7.93002 8.33491 6.66779 9.63986 6.66634 11.2501L6.66634 28.7501C6.66778 30.3603 7.93001 31.6653 9.48752 31.6667Z" fill="#264775"/>
<path d="M16.667 19.1621C16.667 19.5651 17.0062 19.8918 17.4246 19.8918H30.7475L26.7376 23.7542C26.5955 23.8911 26.5157 24.0766 26.5157 24.2701C26.5156 24.6731 26.8548 24.9998 27.2732 24.9999C27.4742 25.0001 27.6669 24.9232 27.8087 24.7861L33.1118 19.678C33.4075 19.393 33.4077 18.931 33.1118 18.6462L27.8087 13.5381C27.5152 13.265 27.0498 13.265 26.7562 13.5381C26.4552 13.8181 26.4469 14.28 26.7376 14.5699L30.7475 18.4323H17.4246C17.0062 18.4323 16.667 18.7591 16.667 19.1621Z" fill="#264775"/>
</svg>
