<svg width="40" height="40" viewBox="0 0 40 40" fill="none" xmlns="http://www.w3.org/2000/svg">
<path d="M0 5C0 2.23858 2.23858 0 5 0H35C37.7614 0 40 2.23858 40 5V35C40 37.7614 37.7614 40 35 40H5C2.23858 40 0 37.7614 0 35V5Z" fill="white"/>
<path d="M20.3536 29.6464C20.5488 29.8417 20.5488 30.1583 20.3536 30.3536C20.1583 30.5488 19.8417 30.5488 19.6464 30.3536L20.3536 29.6464ZM10 20L9.64645 20.3536L9.29289 20L9.64645 19.6464L10 20ZM19.6464 9.64645C19.8417 9.45119 20.1583 9.45119 20.3536 9.64645C20.5488 9.84171 20.5488 10.1583 20.3536 10.3536L19.6464 9.64645ZM19.6464 30.3536L9.64645 20.3536L10.3536 19.6464L20.3536 29.6464L19.6464 30.3536ZM9.64645 19.6464L19.6464 9.64645L20.3536 10.3536L10.3536 20.3536L9.64645 19.6464Z" fill="#666666"/>
<path d="M30.3536 29.6464C30.5488 29.8417 30.5488 30.1583 30.3536 30.3536C30.1583 30.5488 29.8417 30.5488 29.6464 30.3536L30.3536 29.6464ZM20 20L19.6464 20.3536L19.2929 20L19.6464 19.6464L20 20ZM29.6464 9.64645C29.8417 9.45119 30.1583 9.45119 30.3536 9.64645C30.5488 9.84171 30.5488 10.1583 30.3536 10.3536L29.6464 9.64645ZM29.6464 30.3536L19.6464 20.3536L20.3536 19.6464L30.3536 29.6464L29.6464 30.3536ZM19.6464 19.6464L29.6464 9.64645L30.3536 10.3536L20.3536 20.3536L19.6464 19.6464Z" fill="#666666"/>
<path d="M5 1H35V-1H5V1ZM39 5V35H41V5H39ZM35 39H5V41H35V39ZM1 35V5H-1V35H1ZM5 39C2.79086 39 1 37.2091 1 35H-1C-1 38.3137 1.68629 41 5 41V39ZM39 35C39 37.2091 37.2091 39 35 39V41C38.3137 41 41 38.3137 41 35H39ZM35 1C37.2091 1 39 2.79086 39 5H41C41 1.68629 38.3137 -1 35 -1V1ZM5 -1C1.68629 -1 -1 1.68629 -1 5H1C1 2.79086 2.79086 1 5 1V-1Z" fill="#666666"/>
</svg>
