<svg width="40" height="41" viewBox="0 0 40 41" fill="none" xmlns="http://www.w3.org/2000/svg">
<rect x="0.5" y="0.50293" width="39" height="39" rx="4.5" fill="white"/>
<path d="M25.3201 12.0535C25.5322 11.8768 25.5609 11.5615 25.3841 11.3493C25.2073 11.1372 24.892 11.1085 24.6799 11.2853L25.3201 12.0535ZM15 20.0028L14.6799 19.6187L14.219 20.0028L14.6799 20.3869L15 20.0028ZM24.6799 28.7202C24.892 28.897 25.2073 28.8683 25.3841 28.6562C25.5609 28.4441 25.5322 28.1288 25.3201 27.952L24.6799 28.7202ZM24.6799 11.2853L14.6799 19.6187L15.3201 20.3869L25.3201 12.0535L24.6799 11.2853ZM14.6799 20.3869L24.6799 28.7202L25.3201 27.952L15.3201 19.6187L14.6799 20.3869Z" fill="#3780E6"/>
<rect x="0.5" y="0.50293" width="39" height="39" rx="4.5" stroke="#3780E6"/>
</svg>
