<svg width="20" height="20" viewBox="0 0 20 20" fill="none" xmlns="http://www.w3.org/2000/svg">
<path fill-rule="evenodd" clip-rule="evenodd" d="M15.2654 3.97756C15.2654 3.7121 15.1383 3.50783 14.9409 3.40519C14.7455 3.30364 14.4931 3.30768 14.2496 3.4296L10.1875 5.4266L10.1838 5.42866C10.0824 5.48512 9.93073 5.53298 9.76606 5.5666C9.60249 5.60001 9.43294 5.61799 9.29921 5.61799H5.09643C4.13554 5.61799 3.33301 6.32029 3.33301 7.19833V9.69506C3.33301 10.4715 3.97906 11.1085 4.78997 11.2395V11.2558L6.34432 16.1565C6.37845 16.3036 6.47623 16.4305 6.59969 16.5199C6.72442 16.6102 6.88116 16.6666 7.04021 16.6666H8.72133C9.06629 16.6666 9.36981 16.4111 9.33625 16.0522L8.28083 11.2504H9.29921C9.53688 11.2504 9.94421 11.3462 10.1905 11.4432L14.2499 13.439C14.4933 13.5609 14.7455 13.5648 14.9409 13.4632C15.1383 13.3606 15.2654 13.1563 15.2654 12.8909V10.1439L16.6663 9.39484V7.49855L15.2654 6.74953V3.97756ZM10.5123 6.02383L14.5404 4.04345V12.8499L10.512 10.8694C10.1929 10.7143 9.64828 10.5865 9.29921 10.5865H9.10133V6.30692H9.29921C9.6767 6.30692 10.1936 6.17873 10.5123 6.02383ZM4.05799 7.19833C4.05799 6.70318 4.51629 6.28195 5.09643 6.28195H8.37635V10.5865H5.09643C4.51342 10.5865 4.05799 10.1877 4.05799 9.69506V7.19833ZM15.2654 9.38295V7.53541L15.9414 7.89681V9.02155L15.2654 9.38295ZM7.06023 16.0026L5.54545 11.2754H7.57426L8.59141 16.0026H7.06023Z" fill="#4C4C4C"/>
</svg>
