<svg width="24" height="24" viewBox="0 0 24 24" fill="none" xmlns="http://www.w3.org/2000/svg">
<path fill-rule="evenodd" clip-rule="evenodd" d="M14.3759 3.98159C13.6439 3.671 12.8405 3.5 12.0006 3.5C8.89937 3.5 6.29403 5.83189 5.95155 8.9142L5.69975 11.1804L5.69349 11.2363C5.57261 12.2897 5.22971 13.3056 4.68742 14.2168L4.65856 14.265L4.08052 15.2284L4.0666 15.2516C3.81617 15.669 3.60872 16.0147 3.47388 16.301C3.33779 16.5899 3.2329 16.9025 3.28517 17.2338C3.34168 17.5919 3.52601 17.9175 3.80406 18.1502C4.06124 18.3655 4.38322 18.4364 4.70102 18.4683C5.01589 18.5 5.41908 18.5 5.9058 18.5H5.93288H18.0684H18.0955C18.5822 18.5 18.9854 18.5 19.3003 18.4683C19.6181 18.4364 19.9401 18.3655 20.1972 18.1502C20.4753 17.9175 20.6596 17.5919 20.7161 17.2338C20.7684 16.9025 20.6635 16.5899 20.5274 16.301C20.3926 16.0147 20.1852 15.669 19.9348 15.2517L19.9347 15.2516L19.9208 15.2284L19.3427 14.265L19.3139 14.2168C18.7716 13.3056 18.4287 12.2897 18.3078 11.2363L18.3015 11.1804L18.2591 10.7981C17.9462 10.9017 17.6161 10.9677 17.2743 10.9908L17.3077 11.2909L17.3143 11.3503C17.4513 12.5442 17.8399 13.6955 18.4545 14.7282L18.4852 14.7795L19.0633 15.7429C19.3312 16.1894 19.5119 16.4918 19.6227 16.7271C19.7348 16.9649 19.7327 17.0504 19.7283 17.0779C19.7095 17.1973 19.6481 17.3058 19.5554 17.3834C19.534 17.4013 19.4618 17.447 19.2002 17.4734C18.9415 17.4994 18.5891 17.5 18.0684 17.5H5.93288C5.4122 17.5 5.05984 17.4994 4.80112 17.4734C4.5395 17.447 4.46731 17.4013 4.44591 17.3834C4.35323 17.3058 4.29179 17.1973 4.27295 17.0779C4.2686 17.0504 4.26654 16.9649 4.37857 16.7271C4.48936 16.4918 4.67013 16.1894 4.93802 15.7429L5.51605 14.7795L5.54676 14.7282C6.16135 13.6955 6.54997 12.5442 6.68697 11.3503L6.69363 11.2909L6.94543 9.02463C7.23164 6.44875 9.40892 4.5 12.0006 4.5C12.5844 4.5 13.1471 4.59885 13.6719 4.78146C13.8702 4.48438 14.1073 4.21536 14.3759 3.98159ZM16.1899 5.17118C15.8752 5.31094 15.6032 5.52957 15.3991 5.80198C16.2938 6.60546 16.905 7.72486 17.053 8.99933C17.4076 8.99024 17.7392 8.88884 18.0248 8.71829C17.824 7.3204 17.1556 6.08726 16.1899 5.17118Z" fill="#333333"/>
<path d="M9.10222 18.4059C9.27315 19.1501 9.64978 19.8077 10.1737 20.2767C10.6976 20.7458 11.3396 21 12 21C12.6604 21 13.3024 20.7458 13.8263 20.2767C14.3502 19.8077 14.7269 19.1501 14.8978 18.4059" stroke="#333333" stroke-linecap="round"/>
<circle cx="17" cy="7" r="2" fill="#3780E6"/>
</svg>
