<svg width="100" height="100" viewBox="0 0 100 100" fill="none" xmlns="http://www.w3.org/2000/svg">
<path d="M32.5 55C31.837 55 31.2011 55.2634 30.7322 55.7322C30.2634 56.2011 30 56.837 30 57.5V67.5C30 68.163 30.2634 68.7989 30.7322 69.2678C31.2011 69.7366 31.837 70 32.5 70C33.163 70 33.7989 69.7366 34.2678 69.2678C34.7366 68.7989 35 68.163 35 67.5V66.67H36.665C38.2125 66.67 39.6967 66.0552 40.791 64.961C41.8852 63.8667 42.5 62.3825 42.5 60.835C42.5 59.2875 41.8852 57.8033 40.791 56.709C39.6967 55.6148 38.2125 55 36.665 55H32.5ZM36.665 61.67H35V60H36.665C36.8865 60 37.0988 60.088 37.2554 60.2446C37.412 60.4012 37.5 60.6135 37.5 60.835C37.5 61.0565 37.412 61.2688 37.2554 61.4254C37.0988 61.582 36.8865 61.67 36.665 61.67V61.67ZM60 57.495C60.0013 56.8328 60.2653 56.1982 60.734 55.7305C61.2027 55.2627 61.8378 55 62.5 55H67.495C68.158 55 68.7939 55.2634 69.2628 55.7322C69.7316 56.2011 69.995 56.837 69.995 57.5C69.995 58.163 69.7316 58.7989 69.2628 59.2678C68.7939 59.7366 68.158 60 67.495 60H64.995V61.675H67.495C68.158 61.675 68.7939 61.9384 69.2628 62.4072C69.7316 62.8761 69.995 63.512 69.995 64.175C69.995 64.838 69.7316 65.4739 69.2628 65.9428C68.7939 66.4116 68.158 66.675 67.495 66.675H64.995L65 67.495C65.0007 67.8233 64.9366 68.1485 64.8116 68.4521C64.6866 68.7557 64.503 69.0316 64.2713 69.2642C63.8034 69.734 63.168 69.9987 62.505 70C61.842 70.0013 61.2055 69.7392 60.7358 69.2713C60.266 68.8034 60.0013 68.168 60 67.505V57.495V57.495ZM47.49 55C46.827 55 46.1911 55.2634 45.7222 55.7322C45.2534 56.2011 44.99 56.837 44.99 57.5V67.5C44.99 68.163 45.2534 68.7989 45.7222 69.2678C46.1911 69.7366 46.827 70 47.49 70H50C51.9891 70 53.8968 69.2098 55.3033 67.8033C56.7098 66.3968 57.5 64.4891 57.5 62.5C57.5 60.5109 56.7098 58.6032 55.3033 57.1967C53.8968 55.7902 51.9891 55 50 55H47.49ZM49.99 65V60H50C50.663 60 51.2989 60.2634 51.7678 60.7322C52.2366 61.2011 52.5 61.837 52.5 62.5C52.5 63.163 52.2366 63.7989 51.7678 64.2678C51.2989 64.7366 50.663 65 50 65H49.99ZM20 20C20 17.3478 21.0536 14.8043 22.9289 12.9289C24.8043 11.0536 27.3478 10 30 10H52.925C53.9104 10.0002 54.8862 10.1946 55.7964 10.5721C56.7067 10.9496 57.5336 11.5028 58.23 12.2L77.8 31.77C79.2069 33.1752 79.9982 35.0815 80 37.07V45.41C81.4602 45.9286 82.724 46.8867 83.6175 48.1527C84.511 49.4187 84.9905 50.9304 84.99 52.48V72.495C84.9905 74.0446 84.511 75.5563 83.6175 76.8223C82.724 78.0883 81.4602 79.0464 80 79.565V80C80 82.6522 78.9464 85.1957 77.0711 87.0711C75.1957 88.9464 72.6522 90 70 90H30C27.3478 90 24.8043 88.9464 22.9289 87.0711C21.0536 85.1957 20 82.6522 20 80V79.565C18.5387 79.0484 17.2734 78.0917 16.378 76.8265C15.4827 75.5614 15.0013 74.0499 15 72.5V52.485C14.9992 50.9334 15.4796 49.4197 16.3751 48.1525C17.2706 46.8854 18.5371 45.9272 20 45.41V20ZM75 40H57.5C55.5109 40 53.6032 39.2098 52.1967 37.8033C50.7902 36.3968 50 34.4891 50 32.5V15H30C28.6739 15 27.4022 15.5268 26.4645 16.4645C25.5268 17.4021 25 18.6739 25 20V44.98H75V40ZM25 79.995C24.9993 80.652 25.1282 81.3027 25.3792 81.91C25.6301 82.5172 25.9983 83.0689 26.4627 83.5338C26.9271 83.9986 27.4785 84.3673 28.0854 84.6189C28.6924 84.8705 29.343 85 30 85H70C70.657 85 71.3076 84.8705 71.9146 84.6189C72.5215 84.3673 73.0729 83.9986 73.5373 83.5338C74.0017 83.0689 74.3699 82.5172 74.6208 81.91C74.8718 81.3027 75.0007 80.652 75 79.995H25ZM55 16.035V32.5C55 33.163 55.2634 33.7989 55.7322 34.2678C56.2011 34.7366 56.837 35 57.5 35H73.965L55 16.035V16.035ZM22.5 49.98C21.837 49.98 21.2011 50.2434 20.7322 50.7122C20.2634 51.1811 20 51.817 20 52.48V72.495C20 73.158 20.2634 73.7939 20.7322 74.2628C21.2011 74.7316 21.837 74.995 22.5 74.995H77.485C78.148 74.995 78.7839 74.7316 79.2528 74.2628C79.7216 73.7939 79.985 73.158 79.985 72.495V52.48C79.985 51.817 79.7216 51.1811 79.2528 50.7122C78.7839 50.2434 78.148 49.98 77.485 49.98H22.505H22.5Z" fill="#333333"/>
</svg>
