<svg width="18" height="18" viewBox="0 0 18 18" fill="none" xmlns="http://www.w3.org/2000/svg">
<path d="M8.91225 2.25525L9 2.25C9.1837 2.25002 9.361 2.31747 9.49828 2.43954C9.63556 2.56161 9.72326 2.72981 9.74475 2.91225L9.75 3V8.25H15C15.1837 8.25002 15.361 8.31747 15.4983 8.43954C15.6356 8.56161 15.7233 8.72981 15.7448 8.91225L15.75 9C15.75 9.1837 15.6825 9.361 15.5605 9.49828C15.4384 9.63556 15.2702 9.72326 15.0878 9.74475L15 9.75H9.75V15C9.74998 15.1837 9.68253 15.361 9.56046 15.4983C9.43839 15.6356 9.27019 15.7233 9.08775 15.7448L9 15.75C8.8163 15.75 8.639 15.6825 8.50172 15.5605C8.36444 15.4384 8.27674 15.2702 8.25525 15.0878L8.25 15V9.75H3C2.8163 9.74998 2.639 9.68253 2.50172 9.56046C2.36444 9.43839 2.27674 9.27019 2.25525 9.08775L2.25 9C2.25002 8.8163 2.31747 8.639 2.43954 8.50172C2.56161 8.36444 2.72981 8.27674 2.91225 8.25525L3 8.25H8.25V3C8.25002 2.8163 8.31747 2.639 8.43954 2.50172C8.56161 2.36444 8.72981 2.27674 8.91225 2.25525L9 2.25L8.91225 2.25525Z" fill="#3780E6"/>
</svg>
