<svg width="17" height="17" viewBox="0 0 17 17" fill="none" xmlns="http://www.w3.org/2000/svg">
<path d="M11.9785 5.6484C12.1737 5.45314 12.4903 5.45314 12.6856 5.6484C12.8808 5.84366 12.8808 6.16025 12.6856 6.35551L11.9785 5.6484ZM8.33203 10.002L8.68558 10.3555L8.33203 10.7091L7.97848 10.3555L8.33203 10.002ZM3.97848 6.35551C3.78322 6.16025 3.78322 5.84366 3.97848 5.6484C4.17374 5.45314 4.49032 5.45314 4.68558 5.6484L3.97848 6.35551ZM12.6856 6.35551L8.68558 10.3555L7.97848 9.6484L11.9785 5.6484L12.6856 6.35551ZM7.97848 10.3555L3.97848 6.35551L4.68558 5.6484L8.68558 9.6484L7.97848 10.3555Z" fill="#EC3007"/>
</svg>
