<svg width="40" height="40" viewBox="0 0 40 40" fill="none" xmlns="http://www.w3.org/2000/svg">
<path d="M40 35C40 37.7614 37.7614 40 35 40L5 40C2.23857 40 1.95703e-07 37.7614 4.37114e-07 35L3.0598e-06 5C3.30121e-06 2.23857 2.23858 -3.30121e-06 5 -3.0598e-06L35 -4.37114e-07C37.7614 -1.95703e-07 40 2.23857 40 5L40 35Z" fill="white"/>
<path d="M19.6464 10.3536C19.4512 10.1583 19.4512 9.84171 19.6464 9.64645C19.8417 9.45118 20.1583 9.45118 20.3536 9.64645L19.6464 10.3536ZM30 20L30.3536 19.6464L30.7071 20L30.3536 20.3536L30 20ZM20.3536 30.3536C20.1583 30.5488 19.8417 30.5488 19.6464 30.3536C19.4512 30.1583 19.4512 29.8417 19.6464 29.6464L20.3536 30.3536ZM20.3536 9.64645L30.3536 19.6464L29.6464 20.3536L19.6464 10.3536L20.3536 9.64645ZM30.3536 20.3536L20.3536 30.3536L19.6464 29.6464L29.6464 19.6464L30.3536 20.3536Z" fill="#666666"/>
<path d="M9.64645 10.3536C9.45118 10.1583 9.45118 9.84171 9.64645 9.64645C9.84171 9.45118 10.1583 9.45118 10.3536 9.64645L9.64645 10.3536ZM20 20L20.3536 19.6464L20.7071 20L20.3536 20.3536L20 20ZM10.3536 30.3536C10.1583 30.5488 9.84171 30.5488 9.64644 30.3536C9.45118 30.1583 9.45118 29.8417 9.64644 29.6464L10.3536 30.3536ZM10.3536 9.64645L20.3536 19.6464L19.6464 20.3536L9.64645 10.3536L10.3536 9.64645ZM20.3536 20.3536L10.3536 30.3536L9.64644 29.6464L19.6464 19.6464L20.3536 20.3536Z" fill="#666666"/>
<path d="M35 39L5 39L5 41L35 41L35 39ZM1 35L1 5L-0.999997 5L-1 35L1 35ZM5 0.999997L35 1L35 -1L5 -1L5 0.999997ZM39 5L39 35L41 35L41 5L39 5ZM35 1C37.2091 1 39 2.79086 39 5L41 5C41 1.68629 38.3137 -1 35 -1L35 1ZM1 5C1 2.79086 2.79086 0.999997 5 0.999997L5 -1C1.68629 -1 -0.999997 1.68629 -0.999997 5L1 5ZM5 39C2.79086 39 1 37.2091 1 35L-1 35C-1 38.3137 1.68629 41 5 41L5 39ZM35 41C38.3137 41 41 38.3137 41 35L39 35C39 37.2091 37.2091 39 35 39L35 41Z" fill="#666666"/>
</svg>
