<svg width="40" height="41" viewBox="0 0 40 41" fill="none" xmlns="http://www.w3.org/2000/svg">
<rect x="39.5" y="39.5029" width="39" height="39" rx="4.5" transform="rotate(-180 39.5 39.5029)" fill="white"/>
<path d="M14.6799 27.9523C14.4678 28.1291 14.4391 28.4444 14.6159 28.6565C14.7927 28.8687 15.108 28.8973 15.3201 28.7205L14.6799 27.9523ZM25 20.0031L25.3201 20.3872L25.781 20.0031L25.3201 19.619L25 20.0031ZM15.3201 11.2856C15.108 11.1089 14.7927 11.1375 14.6159 11.3497C14.4391 11.5618 14.4678 11.8771 14.6799 12.0539L15.3201 11.2856ZM15.3201 28.7205L25.3201 20.3872L24.6799 19.619L14.6799 27.9523L15.3201 28.7205ZM25.3201 19.619L15.3201 11.2856L14.6799 12.0539L24.6799 20.3872L25.3201 19.619Z" fill="#3780E6"/>
<rect x="39.5" y="39.5029" width="39" height="39" rx="4.5" transform="rotate(-180 39.5 39.5029)" stroke="#3780E6"/>
</svg>
