<svg width="24" height="24" viewBox="0 0 24 24" fill="none" xmlns="http://www.w3.org/2000/svg">
<path fill-rule="evenodd" clip-rule="evenodd" d="M17.3692 6.03235C16.9454 6.1078 16.3664 6.29953 15.5224 6.58101L9.04301 8.74194C8.22357 9.01523 7.62733 9.21425 7.19421 9.38326C6.74416 9.55887 6.5466 9.67503 6.46379 9.75443C5.84801 10.3449 5.84801 11.3294 6.46379 11.9198C6.54659 11.9992 6.74419 12.1154 7.19433 12.291C7.62755 12.4601 8.22393 12.6591 9.04355 12.9325C9.05656 12.9368 9.0694 12.9411 9.08207 12.9453C9.37275 13.0422 9.57341 13.1091 9.75566 13.2053C10.2006 13.4403 10.5644 13.8041 10.7992 14.2492C10.8954 14.4315 10.9622 14.6321 11.059 14.9228C11.0632 14.9355 11.0675 14.9483 11.0718 14.9613C11.3446 15.7801 11.5432 16.3758 11.7119 16.8086C11.8872 17.2583 12.0031 17.4558 12.0822 17.5385C12.6729 18.1558 13.659 18.1558 14.2497 17.5385C14.3289 17.4558 14.4448 17.2583 14.62 16.8086C14.7887 16.3758 14.9874 15.7801 15.2601 14.9613L17.4201 8.47807C17.7013 7.63399 17.8928 7.05489 17.9681 6.63114C18.0441 6.20376 17.9691 6.10669 17.9314 6.06896C17.8936 6.03123 17.7965 5.95626 17.3692 6.03235ZM17.1939 5.04783C17.7036 4.95707 18.239 4.96252 18.6384 5.36174C19.0377 5.76096 19.0433 6.29633 18.9527 6.80612C18.863 7.31092 18.6467 7.96011 18.3824 8.75333L18.3688 8.79415L16.2089 15.2774L16.204 15.2921C15.9371 16.0931 15.7307 16.7128 15.5518 17.1717C15.3784 17.6166 15.2036 17.9881 14.9722 18.2299C13.9878 19.2586 12.3442 19.2586 11.3597 18.2299C11.1284 17.9881 10.9535 17.6166 10.7801 17.1717C10.6013 16.7128 10.3948 16.0931 10.128 15.2921L10.1231 15.2774C10.0086 14.9338 9.96782 14.8164 9.9148 14.7159C9.77388 14.4489 9.55566 14.2306 9.28867 14.0896C9.18822 14.0365 9.07081 13.9957 8.72717 13.8811L8.71236 13.8762C7.91055 13.6088 7.29027 13.4019 6.83083 13.2226C6.3855 13.0489 6.01358 12.8736 5.77168 12.6416C4.74538 11.6575 4.74538 10.0167 5.77168 9.03264C6.01358 8.80069 6.38543 8.62541 6.83069 8.45167C7.29005 8.27242 7.9102 8.0656 8.71184 7.79824L8.72664 7.79331L15.206 5.63237L15.2469 5.61875C16.04 5.35421 16.6891 5.13771 17.1939 5.04783Z" fill="white"/>
</svg>
