<svg width="48" height="48" viewBox="0 0 48 48" fill="none" xmlns="http://www.w3.org/2000/svg">
<path d="M0 10C0 4.47715 4.47715 0 10 0H38C43.5229 0 48 4.47715 48 10V38C48 43.5229 43.5228 48 38 48H10C4.47715 48 0 43.5228 0 38V10Z" fill="#3780E6"/>
<path fill-rule="evenodd" clip-rule="evenodd" d="M29.3711 18.0326C28.9474 18.108 28.3684 18.2998 27.5244 18.5813L21.045 20.7422C20.2255 21.0155 19.6293 21.2145 19.1962 21.3835C18.7461 21.5591 18.5486 21.6753 18.4657 21.7547C17.85 22.3451 17.85 23.3296 18.4657 23.9201C18.5485 23.9995 18.7461 24.1156 19.1963 24.2913C19.6295 24.4603 20.2259 24.6594 21.0455 24.9327C21.0585 24.9371 21.0714 24.9413 21.084 24.9456C21.3747 25.0424 21.5754 25.1093 21.7576 25.2056C22.2026 25.4406 22.5663 25.8044 22.8012 26.2495C22.8974 26.4317 22.9642 26.6324 23.0609 26.923C23.0651 26.9357 23.0694 26.9486 23.0738 26.9616C23.3465 27.7803 23.5452 28.3761 23.7138 28.8089C23.8891 29.2586 24.005 29.456 24.0842 29.5388C24.6748 30.156 25.661 30.156 26.2517 29.5388C26.3308 29.456 26.4467 29.2586 26.622 28.8089C26.7907 28.3761 26.9893 27.7803 27.2621 26.9616L29.422 20.4783C29.7032 19.6342 29.8948 19.0551 29.9701 18.6314C30.0461 18.204 29.9711 18.1069 29.9333 18.0692C29.8956 18.0315 29.7985 17.9565 29.3711 18.0326ZM29.1958 17.0481C29.7056 16.9573 30.241 16.9628 30.6403 17.362C31.0397 17.7612 31.0453 18.2966 30.9547 18.8064C30.865 19.3112 30.6487 19.9604 30.3844 20.7536L30.3708 20.7944L28.2108 27.2776L28.2059 27.2923C27.9391 28.0933 27.7326 28.713 27.5537 29.172C27.3804 29.6168 27.2055 29.9884 26.9742 30.2301C25.9897 31.2589 24.3461 31.2589 23.3617 30.2301C23.1303 29.9884 22.9555 29.6168 22.7821 29.172C22.6032 28.713 22.3968 28.0933 22.1299 27.2923L22.125 27.2776C22.0105 26.934 21.9698 26.8166 21.9168 26.7162C21.7758 26.4491 21.5576 26.2308 21.2906 26.0898C21.1902 26.0368 21.0728 25.996 20.7291 25.8814L20.7143 25.8764C19.9125 25.609 19.2922 25.4021 18.8328 25.2229C18.3874 25.0491 18.0155 24.8738 17.7736 24.6418C16.7473 23.6578 16.7473 22.017 17.7736 21.0329C18.0155 20.8009 18.3874 20.6257 18.8326 20.4519C19.292 20.2727 19.9122 20.0658 20.7138 19.7985L20.7286 19.7936L27.208 17.6326L27.2488 17.619C28.042 17.3545 28.6911 17.138 29.1958 17.0481Z" fill="white"/>
</svg>
