<svg width="35" height="50" viewBox="0 0 35 50" fill="none" xmlns="http://www.w3.org/2000/svg">
<rect width="35" height="50" transform="translate(35 50) rotate(-180)" fill="#181818" fill-opacity="0.3"/>
<path d="M10.677 35.6183C10.4662 35.7967 10.4399 36.1122 10.6183 36.323C10.7967 36.5338 11.1122 36.5601 11.323 36.3817L10.677 35.6183ZM24 25L24.323 25.3817L24.7741 25L24.323 24.6183L24 25ZM11.323 13.6183C11.1122 13.4399 10.7967 13.4662 10.6183 13.677C10.4399 13.8878 10.4662 14.2033 10.677 14.3817L11.323 13.6183ZM11.323 36.3817L24.323 25.3817L23.677 24.6183L10.677 35.6183L11.323 36.3817ZM24.323 24.6183L11.323 13.6183L10.677 14.3817L23.677 25.3817L24.323 24.6183Z" fill="#181818"/>
</svg>
