<svg width="35" height="50" viewBox="0 0 35 50" fill="none" xmlns="http://www.w3.org/2000/svg">
<rect width="35" height="50" fill="#181818" fill-opacity="0.3"/>
<path d="M24.323 14.3817C24.5338 14.2033 24.5601 13.8878 24.3817 13.677C24.2033 13.4662 23.8878 13.4399 23.677 13.6183L24.323 14.3817ZM11 25L10.677 24.6183L10.2259 25L10.677 25.3817L11 25ZM23.677 36.3817C23.8878 36.5601 24.2033 36.5338 24.3817 36.323C24.5601 36.1122 24.5338 35.7967 24.323 35.6183L23.677 36.3817ZM23.677 13.6183L10.677 24.6183L11.323 25.3817L24.323 14.3817L23.677 13.6183ZM10.677 25.3817L23.677 36.3817L24.323 35.6183L11.323 24.6183L10.677 25.3817Z" fill="#181818"/>
</svg>
